<mxfile host="app.diagrams.net" modified="2022-03-31T08:36:13.418Z" agent="5.0 (Macintosh; Intel Mac OS X 10_15_7) AppleWebKit/605.1.15 (KHTML, like Gecko) Version/15.0 Safari/605.1.15" etag="C63K9KyzBUpKZxRKgc_F" version="17.3.0" type="github">
  <diagram id="gCZQDAb0RG9HTkfV89p0" name="Page-1">
    <mxGraphModel dx="677" dy="782" grid="1" gridSize="10" guides="1" tooltips="1" connect="1" arrows="1" fold="1" page="1" pageScale="1" pageWidth="827" pageHeight="1169" math="0" shadow="0">
      <root>
        <mxCell id="0" />
        <mxCell id="1" parent="0" />
        <mxCell id="5zg97cOJr8jLH59vXZX0-1" value="数据文件" style="shape=note;whiteSpace=wrap;html=1;backgroundOutline=1;darkOpacity=0.05;" vertex="1" parent="1">
          <mxGeometry x="110" y="280" width="80" height="100" as="geometry" />
        </mxCell>
        <mxCell id="5zg97cOJr8jLH59vXZX0-13" value="" style="rounded=1;whiteSpace=wrap;html=1;" vertex="1" parent="1">
          <mxGeometry x="240" y="50" width="210" height="260" as="geometry" />
        </mxCell>
        <mxCell id="5zg97cOJr8jLH59vXZX0-14" value="node1" style="text;html=1;strokeColor=none;fillColor=none;align=center;verticalAlign=middle;whiteSpace=wrap;rounded=0;" vertex="1" parent="1">
          <mxGeometry x="250" y="50" width="110" height="30" as="geometry" />
        </mxCell>
        <mxCell id="5zg97cOJr8jLH59vXZX0-17" value="1" style="ellipse;whiteSpace=wrap;html=1;" vertex="1" parent="1">
          <mxGeometry x="330" y="80" width="40" height="30" as="geometry" />
        </mxCell>
        <mxCell id="5zg97cOJr8jLH59vXZX0-18" value="1" style="ellipse;whiteSpace=wrap;html=1;" vertex="1" parent="1">
          <mxGeometry x="290" y="130" width="40" height="30" as="geometry" />
        </mxCell>
        <mxCell id="5zg97cOJr8jLH59vXZX0-19" value="1" style="ellipse;whiteSpace=wrap;html=1;" vertex="1" parent="1">
          <mxGeometry x="374" y="130" width="40" height="30" as="geometry" />
        </mxCell>
        <mxCell id="5zg97cOJr8jLH59vXZX0-20" value="1" style="ellipse;whiteSpace=wrap;html=1;" vertex="1" parent="1">
          <mxGeometry x="250" y="180" width="40" height="30" as="geometry" />
        </mxCell>
        <mxCell id="5zg97cOJr8jLH59vXZX0-21" value="1" style="ellipse;whiteSpace=wrap;html=1;" vertex="1" parent="1">
          <mxGeometry x="334" y="180" width="40" height="30" as="geometry" />
        </mxCell>
        <mxCell id="5zg97cOJr8jLH59vXZX0-22" value="1" style="ellipse;whiteSpace=wrap;html=1;" vertex="1" parent="1">
          <mxGeometry x="334" y="230" width="40" height="30" as="geometry" />
        </mxCell>
        <mxCell id="5zg97cOJr8jLH59vXZX0-23" value="1" style="ellipse;whiteSpace=wrap;html=1;" vertex="1" parent="1">
          <mxGeometry x="290" y="270" width="40" height="30" as="geometry" />
        </mxCell>
        <mxCell id="5zg97cOJr8jLH59vXZX0-24" value="1" style="ellipse;whiteSpace=wrap;html=1;" vertex="1" parent="1">
          <mxGeometry x="380" y="270" width="40" height="30" as="geometry" />
        </mxCell>
        <mxCell id="5zg97cOJr8jLH59vXZX0-25" value="" style="rounded=1;whiteSpace=wrap;html=1;" vertex="1" parent="1">
          <mxGeometry x="470" y="50" width="160" height="260" as="geometry" />
        </mxCell>
        <mxCell id="5zg97cOJr8jLH59vXZX0-26" value="node2" style="text;html=1;strokeColor=none;fillColor=none;align=center;verticalAlign=middle;whiteSpace=wrap;rounded=0;" vertex="1" parent="1">
          <mxGeometry x="480" y="50" width="110" height="30" as="geometry" />
        </mxCell>
        <mxCell id="5zg97cOJr8jLH59vXZX0-27" value="1" style="ellipse;whiteSpace=wrap;html=1;" vertex="1" parent="1">
          <mxGeometry x="500" y="80" width="40" height="30" as="geometry" />
        </mxCell>
        <mxCell id="5zg97cOJr8jLH59vXZX0-28" value="1" style="ellipse;whiteSpace=wrap;html=1;" vertex="1" parent="1">
          <mxGeometry x="500" y="130" width="40" height="30" as="geometry" />
        </mxCell>
        <mxCell id="5zg97cOJr8jLH59vXZX0-29" value="1" style="ellipse;whiteSpace=wrap;html=1;" vertex="1" parent="1">
          <mxGeometry x="560" y="80" width="40" height="30" as="geometry" />
        </mxCell>
        <mxCell id="5zg97cOJr8jLH59vXZX0-30" value="1" style="ellipse;whiteSpace=wrap;html=1;" vertex="1" parent="1">
          <mxGeometry x="500" y="180" width="40" height="30" as="geometry" />
        </mxCell>
        <mxCell id="5zg97cOJr8jLH59vXZX0-31" value="1" style="ellipse;whiteSpace=wrap;html=1;" vertex="1" parent="1">
          <mxGeometry x="564" y="130" width="40" height="30" as="geometry" />
        </mxCell>
        <mxCell id="5zg97cOJr8jLH59vXZX0-32" value="1" style="ellipse;whiteSpace=wrap;html=1;" vertex="1" parent="1">
          <mxGeometry x="540" y="220" width="40" height="30" as="geometry" />
        </mxCell>
        <mxCell id="5zg97cOJr8jLH59vXZX0-33" value="1" style="ellipse;whiteSpace=wrap;html=1;" vertex="1" parent="1">
          <mxGeometry x="540" y="270" width="40" height="30" as="geometry" />
        </mxCell>
        <mxCell id="5zg97cOJr8jLH59vXZX0-35" value="" style="rounded=1;whiteSpace=wrap;html=1;" vertex="1" parent="1">
          <mxGeometry x="650" y="50" width="210" height="150" as="geometry" />
        </mxCell>
        <mxCell id="5zg97cOJr8jLH59vXZX0-36" value="node3" style="text;html=1;strokeColor=none;fillColor=none;align=center;verticalAlign=middle;whiteSpace=wrap;rounded=0;" vertex="1" parent="1">
          <mxGeometry x="660" y="50" width="110" height="30" as="geometry" />
        </mxCell>
        <mxCell id="5zg97cOJr8jLH59vXZX0-37" value="1" style="ellipse;whiteSpace=wrap;html=1;" vertex="1" parent="1">
          <mxGeometry x="760" y="90" width="40" height="30" as="geometry" />
        </mxCell>
        <mxCell id="5zg97cOJr8jLH59vXZX0-38" value="1" style="ellipse;whiteSpace=wrap;html=1;" vertex="1" parent="1">
          <mxGeometry x="670" y="90" width="40" height="30" as="geometry" />
        </mxCell>
        <mxCell id="5zg97cOJr8jLH59vXZX0-39" value="1" style="ellipse;whiteSpace=wrap;html=1;" vertex="1" parent="1">
          <mxGeometry x="730" y="140" width="40" height="30" as="geometry" />
        </mxCell>
        <mxCell id="5zg97cOJr8jLH59vXZX0-40" value="1" style="ellipse;whiteSpace=wrap;html=1;" vertex="1" parent="1">
          <mxGeometry x="670" y="140" width="40" height="30" as="geometry" />
        </mxCell>
        <mxCell id="5zg97cOJr8jLH59vXZX0-41" value="1" style="ellipse;whiteSpace=wrap;html=1;" vertex="1" parent="1">
          <mxGeometry x="800" y="140" width="40" height="30" as="geometry" />
        </mxCell>
      </root>
    </mxGraphModel>
  </diagram>
</mxfile>
